<mxfile host="app.diagrams.net" modified="2023-11-18T04:38:46.019Z" agent="Mozilla/5.0 (Windows NT 10.0; Win64; x64) AppleWebKit/537.36 (KHTML, like Gecko) Chrome/119.0.0.0 Safari/537.36" etag="njPcYBZL3fGAyahqbJlL" version="22.1.3" type="device">
  <diagram id="8eVRGes2NblhkjaH3Vhq" name="페이지-1">
    <mxGraphModel dx="1050" dy="542" grid="1" gridSize="10" guides="1" tooltips="1" connect="1" arrows="1" fold="1" page="1" pageScale="1" pageWidth="827" pageHeight="1169" math="0" shadow="0">
      <root>
        <mxCell id="0" />
        <mxCell id="1" parent="0" />
        <mxCell id="ayzrgqIhKF7YSy4CVlHV-1" value="글쓴이" style="whiteSpace=wrap;html=1;aspect=fixed;" parent="1" vertex="1">
          <mxGeometry x="160" y="240" width="80" height="80" as="geometry" />
        </mxCell>
        <mxCell id="ayzrgqIhKF7YSy4CVlHV-4" value="&lt;u&gt;id&lt;/u&gt;" style="ellipse;whiteSpace=wrap;html=1;" parent="1" vertex="1">
          <mxGeometry x="170" y="180" width="60" height="40" as="geometry" />
        </mxCell>
        <mxCell id="ayzrgqIhKF7YSy4CVlHV-10" value="게시글" style="whiteSpace=wrap;html=1;" parent="1" vertex="1">
          <mxGeometry x="440" y="240" width="80" height="80" as="geometry" />
        </mxCell>
        <mxCell id="ayzrgqIhKF7YSy4CVlHV-12" value="이름" style="ellipse;whiteSpace=wrap;html=1;" parent="1" vertex="1">
          <mxGeometry x="100" y="180" width="50" height="40" as="geometry" />
        </mxCell>
        <mxCell id="ayzrgqIhKF7YSy4CVlHV-18" value="나이" style="ellipse;whiteSpace=wrap;html=1;" parent="1" vertex="1">
          <mxGeometry x="100" y="260" width="50" height="40" as="geometry" />
        </mxCell>
        <mxCell id="ayzrgqIhKF7YSy4CVlHV-19" value="역할" style="ellipse;whiteSpace=wrap;html=1;" parent="1" vertex="1">
          <mxGeometry x="175" y="340" width="50" height="40" as="geometry" />
        </mxCell>
        <mxCell id="ayzrgqIhKF7YSy4CVlHV-20" value="pw" style="ellipse;whiteSpace=wrap;html=1;" parent="1" vertex="1">
          <mxGeometry x="100" y="340" width="50" height="40" as="geometry" />
        </mxCell>
        <mxCell id="ayzrgqIhKF7YSy4CVlHV-21" value="email" style="ellipse;whiteSpace=wrap;html=1;" parent="1" vertex="1">
          <mxGeometry x="250" y="180" width="50" height="40" as="geometry" />
        </mxCell>
        <mxCell id="ayzrgqIhKF7YSy4CVlHV-22" value="주소" style="ellipse;whiteSpace=wrap;html=1;" parent="1" vertex="1">
          <mxGeometry x="240" y="340" width="50" height="40" as="geometry" />
        </mxCell>
        <mxCell id="ayzrgqIhKF7YSy4CVlHV-27" value="" style="endArrow=none;html=1;rounded=0;exitX=0.5;exitY=0;exitDx=0;exitDy=0;entryX=0.5;entryY=1;entryDx=0;entryDy=0;" parent="1" source="ayzrgqIhKF7YSy4CVlHV-19" target="ayzrgqIhKF7YSy4CVlHV-1" edge="1">
          <mxGeometry width="50" height="50" relative="1" as="geometry">
            <mxPoint x="250" y="290" as="sourcePoint" />
            <mxPoint x="310" y="290" as="targetPoint" />
          </mxGeometry>
        </mxCell>
        <mxCell id="ayzrgqIhKF7YSy4CVlHV-28" value="" style="endArrow=none;html=1;rounded=0;exitX=0.5;exitY=0;exitDx=0;exitDy=0;entryX=1;entryY=1;entryDx=0;entryDy=0;" parent="1" source="ayzrgqIhKF7YSy4CVlHV-22" target="ayzrgqIhKF7YSy4CVlHV-1" edge="1">
          <mxGeometry width="50" height="50" relative="1" as="geometry">
            <mxPoint x="260" y="300" as="sourcePoint" />
            <mxPoint x="320" y="300" as="targetPoint" />
          </mxGeometry>
        </mxCell>
        <mxCell id="ayzrgqIhKF7YSy4CVlHV-29" value="" style="endArrow=none;html=1;rounded=0;exitX=1;exitY=0;exitDx=0;exitDy=0;entryX=0;entryY=1;entryDx=0;entryDy=0;" parent="1" source="ayzrgqIhKF7YSy4CVlHV-20" target="ayzrgqIhKF7YSy4CVlHV-1" edge="1">
          <mxGeometry width="50" height="50" relative="1" as="geometry">
            <mxPoint x="270" y="310" as="sourcePoint" />
            <mxPoint x="330" y="310" as="targetPoint" />
          </mxGeometry>
        </mxCell>
        <mxCell id="ayzrgqIhKF7YSy4CVlHV-30" value="" style="endArrow=none;html=1;rounded=0;exitX=1;exitY=0.5;exitDx=0;exitDy=0;" parent="1" source="ayzrgqIhKF7YSy4CVlHV-18" edge="1">
          <mxGeometry width="50" height="50" relative="1" as="geometry">
            <mxPoint x="280" y="320" as="sourcePoint" />
            <mxPoint x="160" y="280" as="targetPoint" />
          </mxGeometry>
        </mxCell>
        <mxCell id="ayzrgqIhKF7YSy4CVlHV-31" value="" style="endArrow=none;html=1;rounded=0;exitX=1;exitY=1;exitDx=0;exitDy=0;entryX=0;entryY=0;entryDx=0;entryDy=0;" parent="1" source="ayzrgqIhKF7YSy4CVlHV-12" target="ayzrgqIhKF7YSy4CVlHV-1" edge="1">
          <mxGeometry width="50" height="50" relative="1" as="geometry">
            <mxPoint x="290" y="330" as="sourcePoint" />
            <mxPoint x="350" y="330" as="targetPoint" />
          </mxGeometry>
        </mxCell>
        <mxCell id="ayzrgqIhKF7YSy4CVlHV-32" value="" style="endArrow=none;html=1;rounded=0;exitX=0.5;exitY=1;exitDx=0;exitDy=0;entryX=0.5;entryY=0;entryDx=0;entryDy=0;" parent="1" source="ayzrgqIhKF7YSy4CVlHV-4" target="ayzrgqIhKF7YSy4CVlHV-1" edge="1">
          <mxGeometry width="50" height="50" relative="1" as="geometry">
            <mxPoint x="300" y="340" as="sourcePoint" />
            <mxPoint x="360" y="340" as="targetPoint" />
          </mxGeometry>
        </mxCell>
        <mxCell id="ayzrgqIhKF7YSy4CVlHV-33" value="" style="endArrow=none;html=1;rounded=0;exitX=0;exitY=1;exitDx=0;exitDy=0;entryX=1;entryY=0;entryDx=0;entryDy=0;" parent="1" source="ayzrgqIhKF7YSy4CVlHV-21" target="ayzrgqIhKF7YSy4CVlHV-1" edge="1">
          <mxGeometry width="50" height="50" relative="1" as="geometry">
            <mxPoint x="310" y="350" as="sourcePoint" />
            <mxPoint x="370" y="350" as="targetPoint" />
          </mxGeometry>
        </mxCell>
        <mxCell id="ayzrgqIhKF7YSy4CVlHV-42" value="" style="edgeStyle=entityRelationEdgeStyle;fontSize=12;html=1;endArrow=ERzeroToMany;startArrow=ERzeroToOne;rounded=0;exitX=1;exitY=0.5;exitDx=0;exitDy=0;entryX=0;entryY=0.5;entryDx=0;entryDy=0;" parent="1" source="ayzrgqIhKF7YSy4CVlHV-1" target="ayzrgqIhKF7YSy4CVlHV-10" edge="1">
          <mxGeometry width="100" height="100" relative="1" as="geometry">
            <mxPoint x="370" y="330" as="sourcePoint" />
            <mxPoint x="470" y="230" as="targetPoint" />
          </mxGeometry>
        </mxCell>
        <mxCell id="ayzrgqIhKF7YSy4CVlHV-43" value="&lt;u&gt;id&lt;/u&gt;" style="ellipse;whiteSpace=wrap;html=1;" parent="1" vertex="1">
          <mxGeometry x="450" y="180" width="60" height="40" as="geometry" />
        </mxCell>
        <mxCell id="ayzrgqIhKF7YSy4CVlHV-44" value="제목" style="ellipse;whiteSpace=wrap;html=1;" parent="1" vertex="1">
          <mxGeometry x="389" y="180" width="50" height="40" as="geometry" />
        </mxCell>
        <mxCell id="ayzrgqIhKF7YSy4CVlHV-45" value="contents" style="ellipse;whiteSpace=wrap;html=1;" parent="1" vertex="1">
          <mxGeometry x="540" y="180" width="50" height="40" as="geometry" />
        </mxCell>
        <mxCell id="ayzrgqIhKF7YSy4CVlHV-46" value="" style="endArrow=none;html=1;rounded=0;exitX=0.5;exitY=1;exitDx=0;exitDy=0;entryX=0;entryY=0;entryDx=0;entryDy=0;" parent="1" source="ayzrgqIhKF7YSy4CVlHV-44" target="ayzrgqIhKF7YSy4CVlHV-10" edge="1">
          <mxGeometry width="50" height="50" relative="1" as="geometry">
            <mxPoint x="610" y="320" as="sourcePoint" />
            <mxPoint x="480" y="230" as="targetPoint" />
          </mxGeometry>
        </mxCell>
        <mxCell id="ayzrgqIhKF7YSy4CVlHV-47" value="" style="endArrow=none;html=1;rounded=0;exitX=0.5;exitY=1;exitDx=0;exitDy=0;entryX=0.5;entryY=0;entryDx=0;entryDy=0;" parent="1" source="ayzrgqIhKF7YSy4CVlHV-43" target="ayzrgqIhKF7YSy4CVlHV-10" edge="1">
          <mxGeometry width="50" height="50" relative="1" as="geometry">
            <mxPoint x="620" y="330" as="sourcePoint" />
            <mxPoint x="520" y="230" as="targetPoint" />
          </mxGeometry>
        </mxCell>
        <mxCell id="ayzrgqIhKF7YSy4CVlHV-48" value="" style="endArrow=none;html=1;rounded=0;exitX=0;exitY=1;exitDx=0;exitDy=0;entryX=1;entryY=0;entryDx=0;entryDy=0;" parent="1" source="ayzrgqIhKF7YSy4CVlHV-45" target="ayzrgqIhKF7YSy4CVlHV-10" edge="1">
          <mxGeometry width="50" height="50" relative="1" as="geometry">
            <mxPoint x="630" y="340" as="sourcePoint" />
            <mxPoint x="560" y="230" as="targetPoint" />
          </mxGeometry>
        </mxCell>
        <mxCell id="ayzrgqIhKF7YSy4CVlHV-50" value="원고료" style="ellipse;whiteSpace=wrap;html=1;" parent="1" vertex="1">
          <mxGeometry x="400" y="340" width="50" height="40" as="geometry" />
        </mxCell>
        <mxCell id="ayzrgqIhKF7YSy4CVlHV-51" value="생성일시" style="ellipse;whiteSpace=wrap;html=1;" parent="1" vertex="1">
          <mxGeometry x="530" y="340" width="50" height="40" as="geometry" />
        </mxCell>
        <mxCell id="ayzrgqIhKF7YSy4CVlHV-53" value="" style="endArrow=none;html=1;rounded=0;exitX=0;exitY=1;exitDx=0;exitDy=0;entryX=0.5;entryY=0;entryDx=0;entryDy=0;" parent="1" source="ayzrgqIhKF7YSy4CVlHV-10" target="ayzrgqIhKF7YSy4CVlHV-50" edge="1">
          <mxGeometry width="50" height="50" relative="1" as="geometry">
            <mxPoint x="424" y="230" as="sourcePoint" />
            <mxPoint x="450" y="250" as="targetPoint" />
          </mxGeometry>
        </mxCell>
        <mxCell id="ayzrgqIhKF7YSy4CVlHV-55" value="" style="endArrow=none;html=1;rounded=0;exitX=1;exitY=1;exitDx=0;exitDy=0;entryX=0.5;entryY=0;entryDx=0;entryDy=0;" parent="1" source="ayzrgqIhKF7YSy4CVlHV-10" target="ayzrgqIhKF7YSy4CVlHV-51" edge="1">
          <mxGeometry width="50" height="50" relative="1" as="geometry">
            <mxPoint x="483" y="330" as="sourcePoint" />
            <mxPoint x="468" y="350" as="targetPoint" />
          </mxGeometry>
        </mxCell>
      </root>
    </mxGraphModel>
  </diagram>
</mxfile>
